<svg width="113" height="113" viewBox="0 0 113 113" fill="none" xmlns="http://www.w3.org/2000/svg">
<g id="CalendarCheck">
<path id="Vector" d="M91.8125 15.0078H80.3359V10.5938C80.3359 9.89134 80.0569 9.2177 79.5602 8.72102C79.0635 8.22434 78.3899 7.94531 77.6875 7.94531C76.9851 7.94531 76.3114 8.22434 75.8148 8.72102C75.3181 9.2177 75.0391 9.89134 75.0391 10.5938V15.0078H37.9609V10.5938C37.9609 9.89134 37.6819 9.2177 37.1852 8.72102C36.6885 8.22434 36.0149 7.94531 35.3125 7.94531C34.6101 7.94531 33.9365 8.22434 33.4398 8.72102C32.9431 9.2177 32.6641 9.89134 32.6641 10.5938V15.0078H21.1875C19.5485 15.0078 17.9767 15.6589 16.8178 16.8178C15.6589 17.9767 15.0078 19.5485 15.0078 21.1875V91.8125C15.0078 93.4515 15.6589 95.0233 16.8178 96.1822C17.9767 97.3411 19.5485 97.9922 21.1875 97.9922H91.8125C93.4515 97.9922 95.0233 97.3411 96.1822 96.1822C97.3411 95.0233 97.9922 93.4515 97.9922 91.8125V21.1875C97.9922 19.5485 97.3411 17.9767 96.1822 16.8178C95.0233 15.6589 93.4515 15.0078 91.8125 15.0078ZM21.1875 20.3047H32.6641V24.7188C32.6641 25.4212 32.9431 26.0948 33.4398 26.5915C33.9365 27.0882 34.6101 27.3672 35.3125 27.3672C36.0149 27.3672 36.6885 27.0882 37.1852 26.5915C37.6819 26.0948 37.9609 25.4212 37.9609 24.7188V20.3047H75.0391V24.7188C75.0391 25.4212 75.3181 26.0948 75.8148 26.5915C76.3114 27.0882 76.9851 27.3672 77.6875 27.3672C78.3899 27.3672 79.0635 27.0882 79.5602 26.5915C80.0569 26.0948 80.3359 25.4212 80.3359 24.7188V20.3047H91.8125C92.0466 20.3047 92.2712 20.3977 92.4367 20.5633C92.6023 20.7288 92.6953 20.9534 92.6953 21.1875V36.1953H20.3047V21.1875C20.3047 20.9534 20.3977 20.7288 20.5633 20.5633C20.7288 20.3977 20.9534 20.3047 21.1875 20.3047ZM91.8125 92.6953H21.1875C20.9534 92.6953 20.7288 92.6023 20.5633 92.4367C20.3977 92.2712 20.3047 92.0466 20.3047 91.8125V41.4922H92.6953V91.8125C92.6953 92.0466 92.6023 92.2712 92.4367 92.4367C92.2712 92.6023 92.0466 92.6953 91.8125 92.6953ZM74.2622 54.6284C74.7582 55.125 75.0367 55.7982 75.0367 56.5C75.0367 57.2018 74.7582 57.875 74.2622 58.3716L53.0747 79.5591C52.5781 80.055 51.905 80.3336 51.2031 80.3336C50.5013 80.3336 49.8281 80.055 49.3316 79.5591L38.7378 68.9653C38.27 68.4633 38.0153 67.7992 38.0274 67.1131C38.0395 66.427 38.3175 65.7723 38.8027 65.2871C39.288 64.8018 39.9426 64.5239 40.6287 64.5118C41.3148 64.4997 41.9789 64.7544 42.4809 65.2222L51.2031 73.94L70.5191 54.6284C71.0156 54.1325 71.6888 53.8539 72.3906 53.8539C73.0925 53.8539 73.7656 54.1325 74.2622 54.6284Z" fill="#205887"/>
</g>
</svg>
