<svg width="42" height="42" viewBox="0 0 42 42" fill="none" xmlns="http://www.w3.org/2000/svg">
<g id="Flag">
<path id="Vector" d="M5.91938 7.11539C5.81255 7.20757 5.7268 7.32165 5.66792 7.44988C5.60904 7.57811 5.57842 7.71749 5.57812 7.85859V35.4375C5.57813 35.6986 5.68184 35.949 5.86644 36.1336C6.05105 36.3182 6.30143 36.4219 6.5625 36.4219C6.82357 36.4219 7.07395 36.3182 7.25856 36.1336C7.44316 35.949 7.54688 35.6986 7.54688 35.4375V28.0186C12.1537 24.2796 16.0584 26.2139 20.5636 28.4402C23.2083 29.7527 26.058 31.1604 29.0948 31.1604C31.3212 31.1604 33.6492 30.4057 36.0773 28.3024C36.1843 28.2109 36.2705 28.0975 36.3299 27.9699C36.3893 27.8422 36.4207 27.7033 36.4219 27.5625V7.85859C36.4221 7.66978 36.368 7.4849 36.266 7.32598C36.164 7.16707 36.0185 7.04083 35.8468 6.96233C35.6751 6.88382 35.4844 6.85635 35.2975 6.8832C35.1106 6.91005 34.9354 6.99008 34.7927 7.11375C30.0349 11.235 26.0515 9.26133 21.4364 6.97594C16.8607 4.71023 11.6484 2.15906 5.91938 7.11539ZM34.4531 27.0982C29.8463 30.8388 25.9416 28.9029 21.4364 26.6749C17.2922 24.6225 12.6476 22.324 7.54688 25.5938V8.32125C12.1537 4.58062 16.0584 6.51656 20.5636 8.74125C24.7078 10.7937 29.3524 13.0922 34.4531 9.82898V27.0982Z" fill="#FE005F"/>
</g>
</svg>
