<svg width="42" height="42" viewBox="0 0 42 42" fill="none" xmlns="http://www.w3.org/2000/svg">
<g id="MapPin">
<path id="Vector" d="M21 10.8281C19.767 10.8281 18.5616 11.1938 17.5364 11.8788C16.5111 12.5638 15.7121 13.5375 15.2402 14.6767C14.7683 15.8159 14.6449 17.0694 14.8854 18.2788C15.126 19.4881 15.7197 20.599 16.5916 21.4709C17.4635 22.3428 18.5744 22.9365 19.7837 23.1771C20.9931 23.4176 22.2466 23.2942 23.3858 22.8223C24.525 22.3504 25.4987 21.5514 26.1837 20.5261C26.8687 19.5009 27.2344 18.2955 27.2344 17.0625C27.2344 15.409 26.5775 13.8233 25.4084 12.6541C24.2392 11.485 22.6535 10.8281 21 10.8281ZM21 21.3281C20.1563 21.3281 19.3316 21.0779 18.6301 20.6092C17.9287 20.1405 17.3819 19.4743 17.0591 18.6949C16.7362 17.9154 16.6517 17.0578 16.8163 16.2303C16.9809 15.4029 17.3872 14.6428 17.9837 14.0462C18.5803 13.4497 19.3404 13.0434 20.1678 12.8788C20.9953 12.7142 21.8529 12.7987 22.6324 13.1216C23.4118 13.4444 24.078 13.9912 24.5467 14.6926C25.0154 15.3941 25.2656 16.2188 25.2656 17.0625C25.2656 18.1938 24.8162 19.2788 24.0163 20.0788C23.2163 20.8787 22.1313 21.3281 21 21.3281ZM21 2.95312C17.2593 2.95747 13.673 4.44538 11.028 7.09046C8.38288 9.73554 6.89497 13.3218 6.89062 17.0625C6.89062 22.1337 9.24328 27.5198 13.6943 32.6386C15.7033 34.9603 17.9643 37.0513 20.4356 38.873C20.6011 38.9887 20.7981 39.0508 21 39.0508C21.2019 39.0508 21.3989 38.9887 21.5644 38.873C24.0357 37.0513 26.2967 34.9603 28.3057 32.6386C32.7567 27.5198 35.1094 22.1386 35.1094 17.0625C35.105 13.3218 33.6171 9.73554 30.972 7.09046C28.327 4.44538 24.7407 2.95747 21 2.95312ZM21 36.8337C18.5391 34.9338 8.85938 26.8439 8.85938 17.0625C8.85938 13.8426 10.1385 10.7546 12.4153 8.47778C14.6921 6.20097 17.7801 4.92188 21 4.92188C24.2199 4.92188 27.3079 6.20097 29.5847 8.47778C31.8615 10.7546 33.1406 13.8426 33.1406 17.0625C33.1406 26.8439 23.4609 34.9338 21 36.8337Z" fill="#FE005F"/>
</g>
</svg>
