<svg width="42" height="42" viewBox="0 0 42 42" fill="none" xmlns="http://www.w3.org/2000/svg">
<path id="Vector" d="M21 0C16.8466 0 12.7865 1.23163 9.33303 3.53914C5.8796 5.84665 3.18798 9.1264 1.59854 12.9636C0.00909861 16.8009 -0.406771 21.0233 0.403519 25.0969C1.21381 29.1705 3.21386 32.9123 6.15077 35.8492C9.08767 38.7861 12.8295 40.7862 16.9031 41.5965C20.9767 42.4068 25.1991 41.9909 29.0364 40.4015C32.8736 38.812 36.1534 36.1204 38.4609 32.667C40.7684 29.2135 42 25.1534 42 21C41.9935 15.4325 39.7789 10.0948 35.842 6.15798C31.9052 2.22113 26.5675 0.00653851 21 0ZM37.7938 13.1765H29.5215C28.6213 9.44256 26.9794 5.9278 24.6935 2.84118C27.5313 3.42434 30.1936 4.66249 32.468 6.4569C34.7425 8.2513 36.5662 10.5523 37.7938 13.1765ZM39.5294 21C39.5308 22.8133 39.2651 24.617 38.7409 26.3529H30.03C30.6175 22.8085 30.6175 19.1915 30.03 15.6471H38.7409C39.2651 17.383 39.5308 19.1866 39.5294 21ZM21 39.5294C20.9487 39.5297 20.8979 39.519 20.851 39.498C20.8041 39.4771 20.7623 39.4464 20.7282 39.4079C18.0765 36.5523 16.1288 32.8856 15.0294 28.8235H26.9706C25.8712 32.8856 23.9235 36.5523 21.2718 39.4079C21.2377 39.4464 21.1959 39.4771 21.149 39.498C21.1021 39.519 21.0513 39.5297 21 39.5294ZM14.4756 26.3529C13.8415 22.8125 13.8415 19.1875 14.4756 15.6471H27.5244C28.1585 19.1875 28.1585 22.8125 27.5244 26.3529H14.4756ZM2.4706 21C2.46921 19.1866 2.7349 17.383 3.25913 15.6471H11.97C11.3825 19.1915 11.3825 22.8085 11.97 26.3529H3.25913C2.7349 24.617 2.46921 22.8133 2.4706 21ZM21 2.47059C21.0513 2.4703 21.1021 2.481 21.149 2.50194C21.1959 2.52289 21.2377 2.55362 21.2718 2.59206C23.9235 5.44765 25.8712 9.11441 26.9706 13.1765H15.0294C16.1288 9.11441 18.0765 5.44765 20.7282 2.59206C20.7623 2.55362 20.8041 2.52289 20.851 2.50194C20.8979 2.481 20.9487 2.4703 21 2.47059ZM17.3065 2.84118C15.0206 5.9278 13.3788 9.44256 12.4785 13.1765H4.20618C5.43376 10.5523 7.2575 8.2513 9.53196 6.4569C11.8064 4.66249 14.4687 3.42434 17.3065 2.84118ZM4.20618 28.8235H12.4785C13.3788 32.5574 15.0206 36.0722 17.3065 39.1588C14.4687 38.5756 11.8064 37.3375 9.53196 35.5431C7.2575 33.7487 5.43376 31.4477 4.20618 28.8235ZM24.6935 39.1588C26.9794 36.0722 28.6213 32.5574 29.5215 28.8235H37.7938C36.5662 31.4477 34.7425 33.7487 32.468 35.5431C30.1936 37.3375 27.5313 38.5756 24.6935 39.1588Z" fill="#FE005F"/>
</svg>
